<svg xmlns="http://www.w3.org/2000/svg" xmlns:xlink="http://www.w3.org/1999/xlink" xmlns:sketch="http://www.bohemiancoding.com/sketch/ns" viewBox="0 0 100 100" version="1.1" x="0px" y="0px"><title>bads</title><desc>Created with Sketch.</desc><g stroke="none" stroke-width="1" fill="none" fill-rule="evenodd" sketch:type="MSPage"><path d="M84.66,19.062 L78.661,19.062 L78.661,78.725 L18.998,78.725 L18.998,84.724 L84.66,84.724 L84.66,19.062 L84.66,19.062 Z M88.936,29.338 L88.936,89.001 L29.274,89.001 L29.274,95 L94.936,95 L94.936,29.338 L88.936,29.338 L88.936,29.338 Z M5,73.662 L73.661,73.662 L73.661,5 L5,5 L5,73.662 Z M10.999,10.999 L67.661,10.999 L67.661,67.662 L10.999,67.662 L10.999,10.999 Z M23.452,59.451 L39.33,43.573 L55.208,59.451 L59.45,55.209 L43.572,39.331 L59.45,23.453 L55.208,19.211 L39.33,35.089 L23.452,19.211 L19.21,23.453 L35.088,39.331 L19.21,55.209 L23.452,59.451 L23.452,59.451 Z" fill="#000000" sketch:type="MSShapeGroup"/></g><text x="0" y="115" fill="#000000" font-size="5px" font-weight="bold" font-family="'Helvetica Neue', Helvetica, Arial-Unicode, Arial, Sans-serif">Created by Marek Polakovic</text><text x="0" y="120" fill="#000000" font-size="5px" font-weight="bold" font-family="'Helvetica Neue', Helvetica, Arial-Unicode, Arial, Sans-serif">from the Noun Project</text></svg>